# xmcd
#
# Track frame offsets:
#	182
#	14730
#	34582
#	53222
#	66260
#	79295
#	94712
#	109585
#	124710
#	143197
#	152350
#	170947
#	186697
#	203495
#	220170
#	233265
#	248497
#	267895
#
# Disc length: 3745 seconds
#
# Revision: 0
# Processed by: cddbd v1.5.2PL0 Copyright (c) Steve Scherf et al.
# Submitted via: audiograbber 1.83.01
#
DISCID=f60e9f12
DTITLE=양희은 - 골든 베스트
DYEAR=1900
DGENRE=Ballad
TTITLE0=아침이슬 - 양희은
TTITLE1=사랑이야 - 양희은
TTITLE2=서울로 가는길 - 양희은
TTITLE3=하늘 - 양희은
TTITLE4=그리운 내님네는 - 양희은
TTITLE5=나홀로 - 양희은
TTITLE6=빗속을 둘이서 - 양희은
TTITLE7=세월이 가면 - 양희은
TTITLE8=보고싶은 마음 - 양희은
TTITLE9=내곁에 와요 - 양희은
TTITLE10=한계령 - 양희은
TTITLE11=나뭇잎 사이로 - 양희은
TTITLE12=작은배 - 양희은
TTITLE13=두리번 거린다 - 양희은
TTITLE14=인형 - 양희은
TTITLE15=숲 - 양희은
TTITLE16=저높은 곳을 향하여 - 양희은
TTITLE17=나도 몰래 - 양희은
EXTD=
EXTT0=
EXTT1=
EXTT2=
EXTT3=
EXTT4=
EXTT5=
EXTT6=
EXTT7=
EXTT8=
EXTT9=
EXTT10=
EXTT11=
EXTT12=
EXTT13=
EXTT14=
EXTT15=
EXTT16=
EXTT17=
PLAYORDER=
